<svg xmlns="http://www.w3.org/2000/svg" viewBox="0 0 64 64" width="64" height="64">
  <circle cx="32" cy="32" r="30" fill="#336791" stroke="#2d5575" stroke-width="2"/>
  <ellipse cx="32" cy="36" rx="18" ry="20" fill="#5d8ab8"/>
  <ellipse cx="24" cy="28" rx="3" ry="4" fill="#2d5575"/>
  <ellipse cx="40" cy="28" rx="3" ry="4" fill="#2d5575"/>
  <path d="M 16 28 Q 10 32 8 40 Q 8 44 12 42 Q 14 38 18 36" fill="#5d8ab8" stroke="#2d5575" stroke-width="1.5"/>
  <path d="M 48 28 Q 54 32 56 40 Q 56 44 52 42 Q 50 38 46 36" fill="#5d8ab8" stroke="#2d5575" stroke-width="1.5"/>
  <ellipse cx="32" cy="44" rx="8" ry="12" fill="#4a7399"/>
  <path d="M 32 52 Q 28 54 24 56 M 32 52 Q 36 54 40 56" stroke="#2d5575" stroke-width="1.5" fill="none"/>
  <ellipse cx="24" cy="28" rx="1.5" ry="2" fill="#fff"/>
  <ellipse cx="40" cy="28" rx="1.5" ry="2" fill="#fff"/>
</svg>
